<svg width="122" height="122" viewBox="0 0 122 122" fill="none" xmlns="http://www.w3.org/2000/svg">
<g clip-path="url(#clip0)">
<path d="M119.477 10.9354C112.127 27.9152 80.6562 100.609 73.8374 116.359C71.8156 121.02 65.315 121.315 62.8825 116.854C62.0463 114.951 46.829 80.3275 45.2549 76.7457L5.14695 59.1181C0.685315 56.6856 0.980461 50.185 5.64132 48.1632L111.065 2.52374C116.385 0.216674 121.784 5.6154 119.477 10.9354Z" fill="#A2D0FF"/>
<path d="M114.895 21.5215L73.8376 116.359C71.8158 121.02 65.3152 121.315 62.8827 116.854L47.5425 81.9503C67.7396 79.9339 84.2006 66.7315 91.3029 49.1865C93.6739 43.3254 95.0807 36.8863 99.0873 31.9967C101.643 28.8805 105.089 26.6226 108.611 24.6623C110.652 23.5236 112.75 22.4684 114.895 21.5215Z" fill="#8BC4FF"/>
<path d="M37.7038 45.1961C39.9956 44.6006 41.7205 41.9728 44.0554 42.3661C44.6386 42.4642 45.2261 42.8103 45.4094 43.3725C45.6573 44.1328 45.0778 44.9287 44.4019 45.3562C43.7263 45.7836 42.9255 46.0072 42.3071 46.5144C40.4111 48.07 40.1162 50.5043 37.7196 51.7424C35.8877 52.6888 33.3539 52.9574 31.509 51.8548C29.7848 50.8243 29.3273 49.2275 30.4154 47.4925C32.1959 44.6547 35.0647 45.8818 37.7038 45.1961Z" fill="white"/>
<path d="M55.652 40.6004C56.9836 39.9696 58.5301 40.0997 60.0034 40.1331C65.3375 40.2546 70.6978 38.8952 75.3291 36.2465C76.7471 35.4356 78.1584 34.4383 78.8655 32.9657C79.5724 31.4932 79.3097 29.4449 77.908 28.6062C77.3765 28.2882 76.7488 28.1735 76.1324 28.1138C74.0991 27.916 72.0156 28.2596 70.1535 29.0996C67.2077 30.4287 65.6491 32.3892 60.4572 35.6954C59.3051 36.429 58.1078 37.1367 56.7819 37.464C54.6079 38.0005 48.4504 37.6045 48.9413 41.5245C49.4618 45.6794 54.2542 41.2626 55.652 40.6004Z" fill="white"/>
<path d="M49.5795 88.552C50.9883 88.552 51.9534 87.0977 51.3796 85.7921L47.5973 77.1857L62.3871 62.3959C63.1555 61.6275 63.1555 60.3815 62.3871 59.6131C61.6187 58.8448 60.373 58.8448 59.6046 59.6131L44.8148 74.4029L37.1791 71.0474C36.1835 70.6098 35.0233 71.0624 34.5863 72.057C34.149 73.0519 34.601 74.2128 35.5959 74.6501L43.7619 78.2388L47.7773 87.3756C48.1013 88.1127 48.8227 88.552 49.5795 88.552Z" fill="#2E58FF"/>
<path d="M110.283 0.716958L4.86066 46.3589C-1.29511 49.0263 -1.70216 57.6246 4.20519 60.8467C4.32079 60.9096 7.06049 62.1094 13.1228 64.7736C14.1177 65.2109 15.2786 64.7586 15.7157 63.7639C16.153 62.769 15.7009 61.6081 14.706 61.1708L6.02256 57.3546C3.06863 55.6774 3.27868 51.3331 6.42445 49.97L111.847 4.32807C115.53 2.73182 119.269 6.46936 117.673 10.1543L72.0313 115.576C70.6631 118.733 66.316 118.92 64.6462 115.978L61.715 109.308C61.2779 108.314 60.1167 107.861 59.1221 108.299C58.1275 108.736 57.6751 109.897 58.1124 110.892C61.2848 118.11 61.0949 117.686 61.1547 117.796C64.3713 123.693 72.9711 123.306 75.6427 117.14L121.284 11.7183C124.299 4.76046 117.251 -2.30239 110.283 0.716958Z" fill="#2E58FF"/>
<path d="M30.9053 61.5809C30.1369 60.8122 28.8912 60.8122 28.1228 61.5809L10.414 79.2896C9.17072 80.5327 10.0682 82.6486 11.8054 82.6486C12.3089 82.6486 12.8126 82.4565 13.1968 82.0724L30.9056 64.3636C31.6737 63.5952 31.6737 62.3492 30.9053 61.5809Z" fill="#2E58FF"/>
<path d="M68.2903 85.1924C67.522 84.4238 66.2762 84.4238 65.5079 85.1924L44.8476 105.853C43.6043 107.096 44.5018 109.212 46.239 109.212C46.7425 109.212 47.2462 109.02 47.6304 108.635L68.2906 87.9752C69.0587 87.2068 69.0587 85.9608 68.2903 85.1924Z" fill="#2E58FF"/>
<path d="M32.0578 87.16L16.3167 102.901C15.5481 103.67 15.5481 104.916 16.3167 105.684C17.0851 106.452 18.3308 106.452 19.0992 105.684L34.8403 89.9428C35.6089 89.1744 35.6089 87.9284 34.8403 87.16C34.0722 86.3916 32.8262 86.3916 32.0578 87.16Z" fill="#2E58FF"/>
<g clip-path="url(#clip1)">
<path d="M119.477 10.9354C112.127 27.9152 80.6562 100.609 73.8374 116.359C71.8156 121.02 65.315 121.315 62.8825 116.854C62.0463 114.951 46.829 80.3275 45.2549 76.7457L5.14695 59.1181C0.685315 56.6856 0.980461 50.185 5.64132 48.1632L111.065 2.52374C116.385 0.216674 121.784 5.6154 119.477 10.9354Z" fill="#99D7F5"/>
<path d="M114.895 21.5215L73.8376 116.359C71.8158 121.02 65.3152 121.315 62.8827 116.854L47.5425 81.9503C67.7396 79.9339 84.2006 66.7315 91.3029 49.1865C93.6739 43.3254 95.0807 36.8863 99.0873 31.9967C101.643 28.8805 105.089 26.6226 108.611 24.6623C110.652 23.5236 112.75 22.4684 114.895 21.5215Z" fill="#5BC1F2"/>
<path d="M37.7038 45.1961C39.9956 44.6006 41.7205 41.9728 44.0554 42.3661C44.6386 42.4642 45.2261 42.8103 45.4094 43.3725C45.6573 44.1328 45.0778 44.9287 44.4019 45.3562C43.7263 45.7836 42.9255 46.0072 42.3071 46.5144C40.4111 48.07 40.1162 50.5043 37.7196 51.7424C35.8877 52.6888 33.3539 52.9574 31.509 51.8548C29.7848 50.8243 29.3273 49.2275 30.4154 47.4925C32.1959 44.6547 35.0647 45.8818 37.7038 45.1961Z" fill="white"/>
<path d="M55.652 40.6004C56.9836 39.9696 58.5301 40.0997 60.0034 40.1331C65.3375 40.2546 70.6978 38.8952 75.3291 36.2465C76.7471 35.4356 78.1584 34.4383 78.8655 32.9657C79.5724 31.4932 79.3097 29.4449 77.908 28.6062C77.3765 28.2882 76.7488 28.1735 76.1324 28.1138C74.0991 27.916 72.0156 28.2596 70.1535 29.0996C67.2077 30.4287 65.6491 32.3892 60.4572 35.6954C59.3051 36.429 58.1078 37.1367 56.7819 37.464C54.6079 38.0005 48.4504 37.6045 48.9413 41.5245C49.4618 45.6794 54.2542 41.2626 55.652 40.6004Z" fill="white"/>
<path d="M49.5795 88.552C50.9883 88.552 51.9534 87.0977 51.3796 85.7921L47.5973 77.1857L62.3871 62.3959C63.1555 61.6275 63.1555 60.3815 62.3871 59.6131C61.6187 58.8448 60.373 58.8448 59.6046 59.6131L44.8148 74.4029L37.1791 71.0474C36.1835 70.6098 35.0233 71.0624 34.5863 72.057C34.149 73.0519 34.601 74.2128 35.5959 74.6501L43.7619 78.2388L47.7773 87.3756C48.1013 88.1127 48.8227 88.552 49.5795 88.552Z" fill="#02A2EF"/>
<path d="M110.283 0.716958L4.86066 46.3589C-1.29511 49.0263 -1.70216 57.6246 4.20519 60.8467C4.32079 60.9096 7.06049 62.1094 13.1228 64.7736C14.1177 65.2109 15.2786 64.7586 15.7157 63.7639C16.153 62.769 15.7009 61.6081 14.706 61.1708L6.02256 57.3546C3.06863 55.6774 3.27868 51.3331 6.42445 49.97L111.847 4.32807C115.53 2.73182 119.269 6.46936 117.673 10.1543L72.0313 115.576C70.6631 118.733 66.316 118.92 64.6462 115.978L61.715 109.308C61.2779 108.314 60.1167 107.861 59.1221 108.299C58.1275 108.736 57.6751 109.897 58.1124 110.892C61.2848 118.11 61.0949 117.686 61.1547 117.796C64.3713 123.693 72.9711 123.306 75.6427 117.14L121.284 11.7183C124.299 4.76046 117.251 -2.30239 110.283 0.716958Z" fill="#02A2EF"/>
<path d="M30.9053 61.5809C30.1369 60.8122 28.8912 60.8122 28.1228 61.5809L10.414 79.2896C9.17072 80.5327 10.0682 82.6486 11.8054 82.6486C12.3089 82.6486 12.8126 82.4565 13.1968 82.0724L30.9056 64.3636C31.6737 63.5952 31.6737 62.3492 30.9053 61.5809Z" fill="#02A2EF"/>
<path d="M68.2903 85.1924C67.522 84.4238 66.2762 84.4238 65.5079 85.1924L44.8476 105.853C43.6043 107.096 44.5018 109.212 46.239 109.212C46.7425 109.212 47.2462 109.02 47.6304 108.635L68.2906 87.9752C69.0587 87.2068 69.0587 85.9608 68.2903 85.1924Z" fill="#02A2EF"/>
<path d="M32.0578 87.16L16.3167 102.901C15.5481 103.67 15.5481 104.916 16.3167 105.684C17.0851 106.452 18.3308 106.452 19.0992 105.684L34.8403 89.9428C35.6089 89.1744 35.6089 87.9284 34.8403 87.16C34.0722 86.3916 32.8262 86.3916 32.0578 87.16Z" fill="#02A2EF"/>
</g>
</g>
<defs>
<clipPath id="clip0">
<rect width="122" height="122" fill="white"/>
</clipPath>
<clipPath id="clip1">
<rect width="122" height="122" fill="white"/>
</clipPath>
</defs>
</svg>
