<svg width="360" height="284" viewBox="0 0 360 284" fill="none" xmlns="http://www.w3.org/2000/svg">
<path d="M324.023 247.145C325.226 247.145 326.2 246.17 326.2 244.968C326.2 243.765 325.226 242.791 324.023 242.791C322.821 242.791 321.846 243.765 321.846 244.968C321.846 246.17 322.821 247.145 324.023 247.145Z" fill="#02A2EF"/>
<path opacity="0.47" d="M312.67 274.082C313.873 274.082 314.847 273.107 314.847 271.905C314.847 270.702 313.873 269.728 312.67 269.728C311.468 269.728 310.493 270.702 310.493 271.905C310.493 273.107 311.468 274.082 312.67 274.082Z" fill="#9FFFEE"/>
<path d="M54.5241 47.5388C55.4587 47.5388 56.2162 46.7812 56.2162 45.8467C56.2162 44.9121 55.4587 44.1545 54.5241 44.1545C53.5896 44.1545 52.832 44.9121 52.832 45.8467C52.832 46.7812 53.5896 47.5388 54.5241 47.5388Z" fill="#EDF4FF"/>
<path d="M184.897 24.235C184.899 24.8332 184.722 25.4183 184.391 25.9164C184.059 26.4144 183.588 26.8029 183.035 27.0326C182.483 27.2624 181.875 27.3232 181.288 27.2072C180.701 27.0913 180.162 26.8038 179.738 26.3812C179.315 25.9587 179.026 25.42 178.909 24.8333C178.792 24.2467 178.851 23.6384 179.08 23.0856C179.309 22.5328 179.696 22.0602 180.194 21.7277C180.691 21.3953 181.276 21.2178 181.874 21.2178C182.675 21.2178 183.443 21.5355 184.01 22.1011C184.576 22.6668 184.896 23.4342 184.897 24.235Z" fill="#02A2EF"/>
<path d="M57.3669 68.8269C57.3681 69.3904 57.2022 69.9416 56.8902 70.4109C56.5781 70.8801 56.1339 71.2463 55.6138 71.463C55.0936 71.6798 54.5208 71.7375 53.9679 71.6288C53.415 71.52 52.9067 71.2498 52.5074 70.8522C52.108 70.4546 51.8356 69.9475 51.7244 69.3951C51.6133 68.8426 51.6685 68.2696 51.883 67.7485C52.0975 67.2274 52.4617 66.7816 52.9296 66.4675C53.3974 66.1534 53.9479 65.9851 54.5114 65.9839C54.8856 65.9831 55.2563 66.056 55.6023 66.1984C55.9483 66.3408 56.2628 66.55 56.528 66.814C56.7931 67.078 57.0037 67.3916 57.1476 67.737C57.2916 68.0824 57.3661 68.4527 57.3669 68.8269Z" fill="#02A2EF"/>
<path d="M76.2536 43.2526C76.8446 43.2526 77.3236 42.7735 77.3236 42.1826C77.3236 41.5916 76.8446 41.1125 76.2536 41.1125C75.6627 41.1125 75.1836 41.5916 75.1836 42.1826C75.1836 42.7735 75.6627 43.2526 76.2536 43.2526Z" fill="#1B1B25"/>
<path d="M304.713 37.187C304.438 36.9992 304.224 36.7344 304.099 36.4256C303.974 36.1169 303.942 35.778 304.009 35.4515C304.075 35.125 304.236 34.8253 304.473 34.5902C304.709 34.355 305.009 34.1948 305.336 34.1296C305.662 34.0644 306.001 34.0972 306.309 34.2238C306.618 34.3503 306.882 34.5651 307.068 34.8411C307.255 35.1172 307.356 35.4422 307.359 35.7754C307.361 36.1086 307.266 36.4352 307.084 36.7142C306.96 36.9026 306.801 37.0646 306.615 37.1907C306.428 37.3168 306.218 37.4044 305.998 37.4484C305.777 37.4925 305.55 37.492 305.329 37.4471C305.109 37.4022 304.899 37.3138 304.713 37.187Z" fill="#EDF4FF"/>
<path d="M283.662 22.1322C283.192 21.821 282.824 21.3772 282.606 20.8571C282.389 20.337 282.33 19.764 282.438 19.2106C282.546 18.6572 282.816 18.1482 283.213 17.7482C283.611 17.3482 284.118 17.0752 284.671 16.9636C285.223 16.852 285.797 16.9069 286.318 17.1214C286.84 17.3359 287.286 17.7002 287.6 18.1684C287.914 18.6366 288.083 19.1874 288.084 19.7513C288.085 20.3152 287.918 20.8667 287.606 21.3359C287.399 21.6474 287.133 21.9151 286.823 22.1238C286.513 22.3324 286.165 22.4779 285.799 22.5518C285.432 22.6258 285.055 22.6268 284.688 22.5548C284.322 22.4828 283.973 22.3392 283.662 22.1322Z" fill="#02A2EF"/>
<path d="M300.24 71.1909C300.064 71.074 299.926 70.9074 299.844 70.712C299.762 70.5167 299.74 70.3014 299.781 70.0935C299.821 69.8857 299.922 69.6945 300.072 69.5443C300.221 69.3941 300.412 69.2915 300.619 69.2496C300.827 69.2078 301.042 69.2284 301.238 69.3091C301.434 69.3897 301.601 69.5266 301.719 69.7025C301.837 69.8784 301.9 70.0854 301.901 70.2972C301.901 70.509 301.838 70.7161 301.721 70.8923C301.644 71.0095 301.544 71.1104 301.428 71.1889C301.311 71.2675 301.18 71.3222 301.043 71.3499C300.905 71.3777 300.763 71.3779 300.626 71.3506C300.488 71.3233 300.357 71.269 300.24 71.1909Z" fill="#1B1B25"/>
<g opacity="0.18">
<path opacity="0.18" d="M305.354 247.606C317.448 233.098 325.821 213.005 325.579 193.881C325.324 174.043 318.182 155.666 321.591 135.317C323.538 123.684 328.061 112.48 328.733 100.703C331.918 45.0504 243.536 -3.24311 207.66 48.8079C205.171 52.3787 203.156 56.3291 199.915 59.2032C197.872 60.9814 195.449 62.2678 192.832 62.9634C190.214 63.659 187.472 63.7453 184.816 63.2157C176.287 61.4427 169.139 54.7614 160.872 51.8562C153.382 49.2352 145.546 47.7383 137.618 47.4144C121.787 46.8519 106.089 50.474 92.105 57.9154C64.3531 72.6343 46.3372 101.599 50.5239 133.426C53.0123 152.257 63.42 169.116 75.2274 183.996C97.8096 212.457 126.339 236.01 157.892 254.026C183.398 268.583 211.878 279.781 241.253 278.816C253.537 278.442 265.602 275.466 276.651 270.086C287.701 264.706 297.484 257.044 305.354 247.606Z" fill="#9FFFEE"/>
</g>
<g opacity="0.47">
<path opacity="0.47" d="M324.503 191.816C327.688 174.509 325.286 154.372 316.347 138.938C307.065 122.95 292.863 111.304 286.318 93.232C282.585 82.8989 281.124 71.7385 276.284 61.872C253.409 15.2457 159.59 16.4588 154.278 75.1352C153.917 79.1601 154.066 83.2971 152.747 87.1105C151.904 89.4899 150.526 91.6442 148.72 93.4075C146.913 95.1709 144.726 96.4963 142.327 97.2819C134.601 99.7703 125.736 97.5867 117.698 99.0113C110.426 100.324 103.388 102.707 96.8144 106.085C83.7079 112.87 72.6226 122.992 64.6768 135.429C48.8755 160.045 47.5006 191.797 65.4606 215.68C76.086 229.832 92.2544 238.747 108.64 245.428C139.988 258.194 173.917 264.266 207.766 264.452C235.138 264.608 263.363 260.657 286.735 246.455C296.535 240.535 304.968 232.604 311.478 223.186C317.988 213.767 322.427 203.076 324.503 191.816Z" fill="#9FD1FF"/>
</g>
<g opacity="0.22">
<path opacity="0.22" d="M55.0466 262.088C53.9393 272.328 62.7482 281.672 74.7174 282.966C86.6865 284.26 105.605 277.908 106.712 267.675C107.819 257.441 89.1252 254.859 79.1778 248.781C65.305 240.302 56.1539 251.855 55.0466 262.088Z" fill="#9FFFEE"/>
</g>
<g opacity="0.47">
<path opacity="0.47" d="M293.397 182.173C295.488 170.82 293.914 157.607 288.047 147.497C281.963 137.015 272.644 129.376 268.352 117.519C265.894 110.738 264.943 103.416 261.77 96.9457C246.765 66.3571 185.252 67.172 181.737 105.655C181.501 108.293 181.594 111.005 180.729 113.512C180.185 115.07 179.291 116.482 178.117 117.641C176.943 118.8 175.519 119.675 173.955 120.2C168.884 121.811 163.074 120.399 157.78 121.332C153.014 122.191 148.402 123.75 144.094 125.96C135.495 130.409 128.222 137.049 123.011 145.208C112.647 161.383 111.745 182.186 123.527 197.869C130.495 207.15 141.101 213.004 151.851 217.384C172.418 225.757 194.67 229.739 216.873 229.863C234.814 229.963 253.347 227.375 268.675 218.043C275.097 214.151 280.621 208.942 284.882 202.759C289.143 196.576 292.046 189.56 293.397 182.173Z" fill="#9FFFEE"/>
</g>
<g opacity="0.31">
<path opacity="0.31" d="M313.342 87.6393C313.138 88.3856 312.717 89.0545 312.132 89.5615C311.548 90.0684 310.826 90.3907 310.058 90.4876C309.29 90.5845 308.511 90.4516 307.819 90.1057C307.127 89.7598 306.553 89.2165 306.169 88.5444C305.786 87.8723 305.61 87.1017 305.665 86.3298C305.719 85.558 306.002 84.8196 306.476 84.2081C306.95 83.5965 307.594 83.1392 308.328 82.894C309.062 82.6489 309.852 82.6267 310.599 82.8305C311.6 83.1054 312.45 83.7661 312.965 84.6676C313.479 85.5692 313.615 86.6379 313.342 87.6393Z" fill="#9FFFEE"/>
</g>
<g opacity="0.31">
<path opacity="0.31" d="M163.784 27.2888C167.137 20.4185 164.285 12.1314 157.415 8.77905C150.544 5.42669 142.257 8.27855 138.905 15.1488C135.553 22.0191 138.404 30.3062 145.275 33.6586C152.145 37.0109 160.432 34.1591 163.784 27.2888Z" fill="#9FFFEE"/>
</g>
<g opacity="0.31">
<path opacity="0.31" d="M333.958 142.596C333.811 143.433 333.42 144.208 332.833 144.823C332.246 145.437 331.49 145.864 330.66 146.049C329.83 146.234 328.964 146.169 328.172 145.862C327.379 145.555 326.695 145.02 326.206 144.325C325.718 143.629 325.446 142.804 325.426 141.955C325.407 141.105 325.639 140.268 326.094 139.55C326.55 138.833 327.208 138.266 327.985 137.922C328.763 137.578 329.625 137.473 330.462 137.619C331.018 137.716 331.55 137.921 332.027 138.224C332.504 138.527 332.917 138.92 333.241 139.383C333.566 139.845 333.797 140.366 333.92 140.918C334.043 141.469 334.056 142.039 333.958 142.596Z" fill="#9FFFEE"/>
</g>
<g opacity="0.31">
<path opacity="0.31" d="M325.125 21.9579C324.978 22.7954 324.586 23.5704 323.998 24.1851C323.411 24.7998 322.654 25.2264 321.824 25.4111C320.994 25.5957 320.128 25.5301 319.335 25.2225C318.543 24.9149 317.859 24.3792 317.371 23.6831C316.883 22.9869 316.612 22.1616 316.593 21.3116C316.574 20.4616 316.807 19.625 317.264 18.9076C317.72 18.1902 318.379 17.6243 319.157 17.2814C319.935 16.9385 320.797 16.834 321.635 16.9811C322.757 17.1784 323.756 17.8136 324.41 18.7469C325.065 19.6802 325.322 20.8352 325.125 21.9579Z" fill="#9FFFEE"/>
</g>
<g opacity="0.31">
<path opacity="0.31" d="M72.6454 106.414C72.5591 106.913 72.3268 107.374 71.9779 107.741C71.6291 108.107 71.1794 108.362 70.6857 108.473C70.1921 108.583 69.6767 108.545 69.2048 108.363C68.7329 108.18 68.3256 107.862 68.0346 107.448C67.7436 107.035 67.582 106.544 67.57 106.038C67.5581 105.532 67.6965 105.034 67.9677 104.607C68.2389 104.18 68.6307 103.843 69.0935 103.639C69.5563 103.434 70.0693 103.372 70.5676 103.459C70.8983 103.516 71.2145 103.638 71.498 103.818C71.7815 103.997 72.0268 104.231 72.2198 104.506C72.4128 104.78 72.5498 105.09 72.6228 105.418C72.6959 105.745 72.7035 106.084 72.6454 106.414Z" fill="#9FFFEE"/>
</g>
<g opacity="0.61">
<path opacity="0.61" d="M247.679 172.17L256.071 169.968C256.904 169.75 257.789 169.871 258.532 170.305C259.275 170.739 259.815 171.45 260.034 172.282L261.726 178.777C264.124 178.802 266.51 179.132 268.824 179.76L272.221 173.968C272.436 173.601 272.722 173.279 273.061 173.022C273.401 172.766 273.787 172.578 274.199 172.471C274.611 172.363 275.04 172.338 275.462 172.396C275.883 172.455 276.289 172.595 276.657 172.811L284.122 177.197C284.862 177.632 285.4 178.344 285.617 179.175C285.834 180.007 285.712 180.89 285.279 181.632L281.889 187.424C283.572 189.141 285.035 191.061 286.243 193.141L292.732 191.443C293.564 191.227 294.448 191.35 295.19 191.785C295.931 192.22 296.47 192.931 296.688 193.763L298.884 202.161C299.1 202.994 298.977 203.878 298.542 204.619C298.107 205.361 297.396 205.9 296.564 206.118L290.075 207.81C290.044 210.21 289.712 212.597 289.086 214.914L294.878 218.305C295.621 218.74 296.161 219.452 296.379 220.285C296.597 221.118 296.476 222.003 296.041 222.747L291.655 230.212C291.219 230.954 290.507 231.493 289.675 231.711C288.842 231.929 287.957 231.808 287.214 231.375L281.422 227.978C279.709 229.664 277.79 231.127 275.711 232.333L277.403 238.828C277.621 239.659 277.499 240.543 277.065 241.285C276.631 242.027 275.921 242.567 275.089 242.784L266.691 244.974C265.859 245.192 264.975 245.07 264.233 244.636C263.491 244.202 262.952 243.492 262.734 242.66L261.048 236.171C258.65 236.143 256.265 235.813 253.95 235.189L250.553 240.98C250.118 241.721 249.406 242.258 248.574 242.474C247.742 242.69 246.859 242.567 246.118 242.131L238.653 237.776C238.285 237.561 237.964 237.276 237.707 236.936C237.45 236.597 237.263 236.21 237.155 235.798C237.048 235.386 237.023 234.957 237.081 234.536C237.139 234.114 237.28 233.708 237.496 233.341L240.886 227.543C239.201 225.829 237.738 223.911 236.531 221.832L230.043 223.53C229.21 223.746 228.327 223.623 227.585 223.188C226.843 222.753 226.304 222.042 226.086 221.21L223.89 212.812C223.676 211.979 223.8 211.096 224.235 210.355C224.669 209.614 225.38 209.074 226.211 208.855L232.699 207.157C232.723 204.751 233.052 202.357 233.676 200.034L227.878 196.643C227.137 196.206 226.599 195.494 226.383 194.661C226.166 193.829 226.287 192.944 226.721 192.202L231.113 184.736C231.328 184.369 231.613 184.047 231.952 183.789C232.291 183.532 232.678 183.344 233.09 183.236C233.501 183.127 233.931 183.102 234.353 183.16C234.774 183.218 235.181 183.358 235.548 183.573L241.34 186.97C243.052 185.282 244.971 183.819 247.051 182.615L245.359 176.12C245.143 175.289 245.266 174.406 245.702 173.665C246.137 172.924 246.848 172.386 247.679 172.17ZM269.527 181.501L268.974 181.34C266.438 180.599 263.808 180.234 261.166 180.257H260.594L258.61 172.655C258.486 172.206 258.19 171.823 257.786 171.59C257.382 171.357 256.902 171.293 256.451 171.411L248.053 173.607C247.604 173.731 247.223 174.026 246.99 174.429C246.757 174.831 246.692 175.309 246.808 175.759L248.793 183.362L248.289 183.635C245.977 184.908 243.862 186.511 242.012 188.394L241.608 188.805L234.827 184.836C234.423 184.599 233.942 184.532 233.489 184.648C233.035 184.765 232.646 185.056 232.407 185.458L228.021 192.923C227.784 193.327 227.717 193.808 227.833 194.261C227.95 194.715 228.241 195.104 228.643 195.343L235.424 199.318L235.262 199.866C234.525 202.402 234.16 205.032 234.18 207.673V208.245L226.584 210.23C226.133 210.352 225.75 210.648 225.517 211.053C225.283 211.457 225.22 211.937 225.34 212.389L227.53 220.787C227.652 221.237 227.948 221.621 228.352 221.854C228.757 222.088 229.237 222.151 229.688 222.031L237.284 220.047L237.564 220.551C238.833 222.867 240.437 224.984 242.323 226.834L242.734 227.238L238.734 234.044C238.497 234.448 238.429 234.929 238.546 235.382C238.662 235.835 238.953 236.224 239.356 236.464L246.821 240.819C247.225 241.055 247.706 241.123 248.159 241.006C248.612 240.89 249.001 240.599 249.241 240.196L253.21 233.416L253.763 233.577C256.299 234.318 258.929 234.683 261.571 234.66H262.143L264.159 242.293C264.284 242.742 264.58 243.123 264.984 243.356C265.388 243.589 265.866 243.654 266.317 243.537L274.716 241.341C275.165 241.217 275.548 240.921 275.781 240.517C276.014 240.113 276.078 239.634 275.96 239.182L273.975 231.587L274.479 231.307C276.801 230.049 278.925 228.456 280.781 226.579L281.186 226.174L287.966 230.143C288.166 230.261 288.387 230.339 288.617 230.372C288.847 230.404 289.081 230.391 289.305 230.333C289.53 230.276 289.741 230.174 289.927 230.035C290.112 229.896 290.268 229.721 290.386 229.521L294.741 222.056C294.978 221.652 295.045 221.171 294.929 220.718C294.812 220.265 294.521 219.876 294.119 219.636L287.338 215.661L287.5 215.107C288.248 212.571 288.619 209.938 288.601 207.294V206.672L296.197 204.687C296.647 204.566 297.031 204.271 297.264 203.868C297.497 203.465 297.561 202.985 297.441 202.535L295.264 194.149C295.141 193.698 294.845 193.314 294.441 193.081C294.036 192.848 293.556 192.785 293.105 192.905L285.515 194.852L285.235 194.348C283.966 192.031 282.363 189.914 280.476 188.065L280.066 187.66L284.041 180.879C284.277 180.476 284.345 179.996 284.228 179.544C284.112 179.092 283.821 178.704 283.419 178.466L275.954 174.074C275.55 173.837 275.069 173.769 274.615 173.886C274.162 174.002 273.773 174.294 273.534 174.696L269.527 181.501ZM256.202 187.629C260.131 186.599 264.278 186.758 268.116 188.086C271.955 189.413 275.314 191.85 277.768 195.087C280.221 198.324 281.66 202.216 281.9 206.271C282.141 210.326 281.174 214.361 279.12 217.865C277.067 221.37 274.02 224.187 270.365 225.959C266.71 227.732 262.612 228.38 258.589 227.822C254.565 227.265 250.797 225.526 247.763 222.826C244.728 220.127 242.562 216.587 241.539 212.656C240.172 207.394 240.948 201.804 243.697 197.114C246.446 192.423 250.943 189.014 256.202 187.635V187.629ZM266.199 225.894C269.842 224.944 273.121 222.935 275.621 220.121C278.122 217.307 279.732 213.815 280.249 210.086C280.765 206.357 280.164 202.559 278.522 199.171C276.88 195.784 274.27 192.959 271.023 191.055C267.776 189.15 264.037 188.251 260.279 188.471C256.521 188.692 252.912 190.021 249.91 192.292C246.907 194.563 244.645 197.673 243.41 201.229C242.175 204.785 242.022 208.627 242.97 212.27C244.247 217.156 247.41 221.335 251.765 223.89C256.12 226.446 261.312 227.169 266.199 225.901V225.894Z" fill="white"/>
<path opacity="0.61" d="M85.3237 108.803L93.7034 106.607C94.5357 106.391 95.4197 106.514 96.1614 106.949C96.9031 107.384 97.442 108.096 97.6599 108.928L99.3583 115.416C101.756 115.447 104.14 115.778 106.456 116.399L109.847 110.607C110.284 109.866 110.997 109.329 111.829 109.112C112.661 108.895 113.546 109.017 114.289 109.45L121.754 113.836C122.495 114.273 123.032 114.986 123.249 115.818C123.466 116.65 123.344 117.535 122.911 118.278L119.514 124.069C121.203 125.78 122.667 127.699 123.869 129.78L130.407 128.088C131.239 127.87 132.123 127.992 132.865 128.426C133.607 128.86 134.146 129.571 134.364 130.402L136.56 138.801C136.776 139.633 136.653 140.517 136.218 141.259C135.783 142.001 135.071 142.539 134.239 142.757L127.72 144.462C127.695 146.86 127.364 149.245 126.737 151.56L132.529 154.957C132.896 155.172 133.217 155.457 133.474 155.797C133.731 156.136 133.918 156.523 134.026 156.935C134.133 157.347 134.159 157.776 134.1 158.197C134.042 158.619 133.901 159.025 133.686 159.392L129.3 166.857C128.864 167.598 128.152 168.135 127.321 168.352C126.49 168.569 125.606 168.448 124.864 168.015L119.073 164.624C117.356 166.299 115.435 167.752 113.355 168.948L115.054 175.442C115.27 176.275 115.147 177.159 114.712 177.9C114.277 178.642 113.565 179.181 112.733 179.399L104.335 181.595C103.503 181.809 102.62 181.685 101.878 181.251C101.137 180.816 100.598 180.105 100.379 179.275L98.6802 172.798C96.2829 172.778 93.8978 172.454 91.582 171.834L88.1916 177.626C87.7536 178.366 87.04 178.902 86.2074 179.117C85.3747 179.331 84.4909 179.207 83.7498 178.771L76.2846 174.379C75.5467 173.947 75.0088 173.242 74.7875 172.416C74.5662 171.59 74.6794 170.711 75.1026 169.968L78.4993 164.176C76.815 162.462 75.3521 160.543 74.1446 158.465L67.6561 160.157C66.8229 160.375 65.9373 160.253 65.1942 159.818C64.451 159.383 63.9112 158.67 63.6933 157.837L61.5284 149.439C61.4169 149.025 61.3883 148.594 61.4445 148.169C61.5006 147.745 61.6403 147.336 61.8555 146.965C62.0707 146.595 62.3571 146.271 62.6981 146.013C63.0392 145.754 63.4282 145.565 63.8426 145.457L70.3311 143.765C70.3605 141.368 70.6885 138.983 71.3078 136.667L65.5285 133.264C65.1613 133.049 64.84 132.763 64.5831 132.424C64.3262 132.085 64.1387 131.698 64.0312 131.286C63.9238 130.874 63.8985 130.445 63.9569 130.023C64.0153 129.602 64.1561 129.196 64.3714 128.829L68.7261 121.363C68.9409 120.994 69.2265 120.671 69.5667 120.412C69.9068 120.153 70.2948 119.965 70.7082 119.857C71.1215 119.748 71.5522 119.723 71.9754 119.782C72.3987 119.841 72.806 119.983 73.1741 120.2L78.9659 123.59C80.6778 121.903 82.5967 120.44 84.6767 119.236L83.0033 112.735C82.7949 111.906 82.9216 111.028 83.356 110.292C83.7904 109.556 84.4974 109.021 85.3237 108.803ZM107.172 118.135L106.618 117.973C104.082 117.235 101.452 116.871 98.8108 116.89H98.2385L96.254 109.295C96.1301 108.845 95.8341 108.462 95.43 108.229C95.026 107.997 94.5464 107.932 94.0953 108.05L85.697 110.246C85.2464 110.369 84.8627 110.665 84.6296 111.069C84.3964 111.474 84.3329 111.954 84.4528 112.405L86.4373 120.001L85.9334 120.281C83.6177 121.552 81.5009 123.155 79.6502 125.04L79.2458 125.451L72.4525 121.444C72.0515 121.217 71.5779 121.155 71.132 121.271C70.6861 121.387 70.3029 121.673 70.0636 122.066L65.6716 129.532C65.4352 129.934 65.3679 130.414 65.4844 130.867C65.601 131.319 65.892 131.707 66.2937 131.945L73.0746 135.92L72.9128 136.474C72.1722 139.008 71.8075 141.636 71.8304 144.275V144.854L64.2221 146.888C63.773 147.011 63.3903 147.305 63.1574 147.708C62.9244 148.111 62.8599 148.59 62.9779 149.041L65.1739 157.445C65.2978 157.895 65.5938 158.277 65.9979 158.51C66.4019 158.743 66.8815 158.807 67.3326 158.689L74.9284 156.705L75.2022 157.209C76.4754 159.523 78.0809 161.637 79.9674 163.486L80.378 163.89L76.4028 170.671C76.1661 171.075 76.0986 171.556 76.2151 172.009C76.3317 172.462 76.6228 172.851 77.0249 173.091L84.4901 177.477C84.6894 177.595 84.9099 177.672 85.1392 177.705C85.3684 177.737 85.6018 177.724 85.826 177.666C86.0502 177.609 86.2608 177.507 86.4458 177.368C86.6307 177.229 86.7864 177.054 86.9038 176.855L90.8791 170.08L91.4327 170.235C93.9654 170.979 96.5943 171.344 99.2338 171.318H99.8124L101.791 178.92C101.912 179.37 102.206 179.754 102.61 179.987C103.013 180.22 103.493 180.284 103.943 180.164L112.366 177.993C112.817 177.871 113.201 177.575 113.434 177.17C113.667 176.766 113.73 176.286 113.611 175.834L111.632 168.232L112.136 167.959C114.45 166.688 116.565 165.084 118.413 163.199L118.818 162.789L125.598 166.758C125.798 166.876 126.019 166.954 126.249 166.986C126.479 167.019 126.712 167.006 126.937 166.948C127.162 166.89 127.373 166.789 127.559 166.649C127.744 166.51 127.9 166.336 128.018 166.136L132.373 158.671C132.61 158.267 132.677 157.786 132.561 157.332C132.444 156.879 132.153 156.49 131.751 156.251L124.976 152.282L125.132 151.728C125.872 149.192 126.237 146.562 126.214 143.921V143.348L133.841 141.351C134.291 141.228 134.674 140.931 134.906 140.527C135.139 140.123 135.204 139.644 135.085 139.193L132.896 130.776C132.773 130.325 132.477 129.941 132.073 129.708C131.668 129.475 131.188 129.412 130.737 129.532L123.135 131.516L122.861 131.012C121.588 128.7 119.985 126.585 118.102 124.735L117.692 124.331L121.66 117.55C121.897 117.146 121.965 116.665 121.848 116.212C121.732 115.758 121.441 115.369 121.038 115.13L113.573 110.775C113.169 110.538 112.688 110.471 112.235 110.588C111.782 110.704 111.393 110.995 111.153 111.397L107.172 118.135ZM93.8465 124.262C97.7757 123.232 101.922 123.391 105.761 124.719C109.6 126.046 112.959 128.483 115.412 131.72C117.866 134.957 119.304 138.849 119.545 142.904C119.785 146.959 118.818 150.994 116.765 154.499C114.711 158.003 111.664 160.82 108.01 162.592C104.355 164.365 100.256 165.013 96.2329 164.456C92.2095 163.898 88.4419 162.159 85.407 159.459C82.3721 156.76 80.2063 153.22 79.1836 149.289C77.8145 144.026 78.5895 138.435 81.3385 133.743C84.0875 129.051 88.586 125.641 93.8465 124.262ZM103.837 162.503C107.484 161.555 110.767 159.547 113.271 156.732C115.775 153.917 117.388 150.423 117.905 146.691C118.422 142.959 117.82 139.158 116.176 135.769C114.531 132.379 111.918 129.554 108.666 127.65C105.415 125.747 101.672 124.851 97.9113 125.076C94.1506 125.302 90.5412 126.638 87.5403 128.915C84.5393 131.193 82.2817 134.31 81.0532 137.871C79.8247 141.433 79.6807 145.279 80.6393 148.922C81.9258 153.793 85.0884 157.955 89.4356 160.5C93.7828 163.045 98.9608 163.765 103.837 162.503Z" fill="white"/>
<path opacity="0.61" d="M254.143 148.673L258.156 149.662C258.163 151.202 258.398 152.733 258.853 154.204L255.313 156.35C254.991 156.546 254.76 156.862 254.67 157.228C254.58 157.594 254.639 157.981 254.834 158.303L257.384 162.521C257.481 162.681 257.609 162.821 257.76 162.932C257.911 163.043 258.083 163.123 258.265 163.167C258.447 163.212 258.636 163.22 258.821 163.191C259.006 163.163 259.184 163.098 259.344 163L262.878 160.86C263.982 161.946 265.24 162.864 266.61 163.585L265.621 167.598C265.572 167.78 265.56 167.97 265.586 168.157C265.611 168.343 265.674 168.523 265.769 168.686C265.864 168.849 265.991 168.991 266.142 169.104C266.293 169.217 266.465 169.299 266.647 169.346L271.438 170.521C271.619 170.566 271.807 170.574 271.992 170.546C272.177 170.517 272.354 170.453 272.513 170.355C272.673 170.258 272.812 170.131 272.922 169.98C273.032 169.829 273.111 169.658 273.155 169.476L274.144 165.464C275.685 165.453 277.217 165.219 278.691 164.767L280.831 168.307C281.027 168.629 281.343 168.86 281.709 168.95C282.075 169.04 282.462 168.981 282.785 168.786L287.003 166.229C287.163 166.132 287.302 166.005 287.413 165.855C287.524 165.704 287.604 165.533 287.648 165.352C287.693 165.17 287.701 164.982 287.672 164.797C287.644 164.612 287.579 164.435 287.482 164.276L285.31 160.711C286.394 159.616 287.312 158.369 288.035 157.009L292.048 157.999C292.23 158.043 292.418 158.051 292.603 158.023C292.788 157.995 292.966 157.93 293.126 157.833C293.286 157.736 293.425 157.608 293.536 157.457C293.647 157.306 293.726 157.135 293.771 156.953L294.947 152.163C295.035 151.798 294.976 151.412 294.781 151.091C294.586 150.769 294.272 150.537 293.908 150.446L289.914 149.438C289.907 147.897 289.672 146.364 289.217 144.891L292.757 142.751C292.917 142.654 293.056 142.527 293.167 142.377C293.278 142.226 293.358 142.055 293.403 141.874C293.447 141.692 293.455 141.504 293.427 141.319C293.398 141.134 293.333 140.957 293.236 140.798L290.685 136.58C290.589 136.42 290.462 136.28 290.311 136.169C290.161 136.059 289.99 135.979 289.808 135.934C289.627 135.89 289.438 135.881 289.253 135.91C289.069 135.939 288.892 136.003 288.732 136.101L285.192 138.241C284.088 137.155 282.83 136.237 281.46 135.516L282.449 131.503C282.493 131.322 282.502 131.133 282.473 130.948C282.445 130.763 282.38 130.585 282.283 130.425C282.186 130.265 282.059 130.126 281.908 130.015C281.757 129.904 281.585 129.825 281.404 129.78L276.62 128.604C276.253 128.514 275.866 128.573 275.543 128.768C275.22 128.962 274.988 129.277 274.896 129.643L273.907 133.662C272.367 133.669 270.837 133.904 269.366 134.359L267.27 130.838C267.173 130.678 267.046 130.538 266.895 130.427C266.745 130.317 266.574 130.237 266.392 130.192C266.211 130.148 266.022 130.139 265.838 130.168C265.653 130.197 265.476 130.261 265.316 130.359L261.098 132.909C260.938 133.006 260.799 133.133 260.688 133.283C260.577 133.434 260.497 133.605 260.453 133.786C260.408 133.968 260.4 134.156 260.429 134.341C260.457 134.526 260.522 134.703 260.619 134.863L262.759 138.402C261.674 139.507 260.756 140.764 260.035 142.135L256.022 141.146C255.84 141.101 255.651 141.093 255.466 141.121C255.281 141.15 255.104 141.214 254.944 141.311C254.784 141.408 254.644 141.536 254.534 141.687C254.423 141.838 254.343 142.009 254.299 142.191L253.098 146.95C253.054 147.132 253.045 147.321 253.074 147.506C253.102 147.691 253.167 147.868 253.264 148.028C253.361 148.188 253.488 148.328 253.639 148.438C253.79 148.549 253.961 148.629 254.143 148.673ZM276.713 138.651C278.871 139.181 280.824 140.339 282.325 141.979C283.825 143.618 284.805 145.666 285.141 147.863C285.477 150.06 285.154 152.308 284.213 154.321C283.272 156.334 281.755 158.023 279.853 159.174C277.952 160.325 275.752 160.886 273.532 160.786C271.311 160.687 269.171 159.931 267.38 158.614C265.589 157.298 264.23 155.48 263.472 153.39C262.715 151.301 262.595 149.033 263.126 146.875C263.478 145.443 264.109 144.094 264.982 142.906C265.856 141.717 266.954 140.713 268.216 139.949C269.478 139.185 270.878 138.678 272.336 138.455C273.793 138.232 275.281 138.299 276.713 138.651Z" fill="white"/>
<g opacity="0.36">
<path opacity="0.36" d="M302.996 190.877C302.883 190.874 302.77 190.86 302.66 190.833L298.996 189.925C298.817 189.881 298.648 189.802 298.499 189.693C298.351 189.584 298.225 189.447 298.13 189.289C298.034 189.131 297.971 188.956 297.944 188.774C297.916 188.591 297.925 188.405 297.969 188.226L298.672 185.371C297.751 184.859 296.898 184.232 296.134 183.505L293.615 185.029C293.296 185.221 292.914 185.28 292.553 185.191C292.191 185.102 291.88 184.874 291.686 184.556L289.72 181.309C289.528 180.99 289.47 180.608 289.558 180.247C289.647 179.885 289.875 179.574 290.193 179.38L292.713 177.85C292.423 176.837 292.262 175.792 292.234 174.739L289.378 174.036C289.2 173.996 289.031 173.92 288.883 173.813C288.734 173.706 288.609 173.571 288.514 173.414C288.416 173.257 288.351 173.082 288.322 172.899C288.293 172.717 288.301 172.53 288.346 172.35L289.254 168.668C289.294 168.488 289.37 168.319 289.477 168.169C289.584 168.02 289.72 167.893 289.876 167.797C290.195 167.605 290.578 167.546 290.94 167.635L293.795 168.338C294.307 167.416 294.934 166.563 295.662 165.8L294.131 163.311C293.939 162.99 293.881 162.605 293.969 162.241C294.055 161.883 294.279 161.572 294.591 161.377L297.839 159.411C298.158 159.22 298.539 159.163 298.9 159.251C299.261 159.34 299.573 159.567 299.767 159.884L301.291 162.372C302.304 162.083 303.349 161.922 304.402 161.893L305.105 159.038C305.196 158.676 305.426 158.365 305.746 158.173C306.065 157.981 306.447 157.923 306.809 158.011L310.492 158.913C310.854 159.004 311.165 159.234 311.358 159.553C311.552 159.872 311.612 160.255 311.525 160.618L310.816 163.467C311.737 163.977 312.588 164.605 313.348 165.333L315.836 163.809C315.993 163.712 316.168 163.647 316.351 163.619C316.533 163.59 316.72 163.598 316.899 163.642C317.079 163.686 317.248 163.765 317.396 163.875C317.545 163.985 317.67 164.123 317.765 164.282L319.73 167.529C319.828 167.686 319.893 167.861 319.922 168.044C319.951 168.227 319.943 168.413 319.898 168.593C319.813 168.952 319.589 169.262 319.276 169.458L316.788 170.982C317.08 171.994 317.241 173.039 317.267 174.092L320.122 174.795C320.302 174.839 320.472 174.918 320.621 175.027C320.771 175.137 320.897 175.275 320.993 175.433C321.089 175.591 321.153 175.767 321.18 175.95C321.208 176.133 321.2 176.32 321.155 176.5L320.247 180.183C320.207 180.361 320.131 180.53 320.024 180.678C319.917 180.827 319.781 180.952 319.625 181.047C319.467 181.145 319.292 181.209 319.11 181.238C318.927 181.267 318.741 181.259 318.561 181.215L315.693 180.543C315.179 181.462 314.552 182.313 313.827 183.075L315.351 185.595C315.447 185.753 315.511 185.928 315.539 186.111C315.566 186.293 315.558 186.48 315.513 186.659C315.428 187.019 315.204 187.332 314.891 187.53L311.643 189.496C311.323 189.688 310.94 189.745 310.577 189.656C310.214 189.566 309.902 189.336 309.708 189.016L308.184 186.528C307.171 186.815 306.126 186.974 305.074 187.001L304.371 189.856C304.286 190.154 304.105 190.415 303.857 190.6C303.608 190.784 303.306 190.882 302.996 190.877ZM296.203 182.721L296.371 182.895C297.194 183.707 298.13 184.394 299.151 184.936L299.363 185.047L298.548 188.376C298.499 188.577 298.532 188.789 298.639 188.967C298.746 189.144 298.919 189.271 299.12 189.321L302.809 190.23C302.909 190.255 303.013 190.26 303.114 190.244C303.216 190.228 303.313 190.191 303.4 190.136C303.489 190.084 303.565 190.015 303.626 189.933C303.687 189.85 303.731 189.757 303.755 189.657L304.595 186.329H304.837C305.991 186.32 307.137 186.144 308.24 185.806L308.477 185.732L310.25 188.662C310.303 188.75 310.373 188.827 310.456 188.888C310.538 188.95 310.632 188.994 310.732 189.019C310.832 189.044 310.936 189.048 311.038 189.033C311.14 189.018 311.238 188.983 311.326 188.929L314.573 186.964C314.751 186.855 314.878 186.681 314.927 186.479C314.976 186.278 314.942 186.065 314.835 185.887L313.062 182.957L313.236 182.783C314.047 181.962 314.734 181.027 315.276 180.009L315.388 179.791L318.716 180.612C318.918 180.656 319.129 180.623 319.307 180.519C319.396 180.466 319.473 180.396 319.534 180.312C319.595 180.229 319.639 180.134 319.662 180.033L320.57 176.351C320.599 176.246 320.605 176.137 320.589 176.03C320.573 175.923 320.535 175.82 320.477 175.728C320.423 175.64 320.353 175.564 320.27 175.503C320.186 175.442 320.092 175.398 319.992 175.374L316.67 174.559V174.323C316.661 173.167 316.485 172.019 316.147 170.913L316.073 170.683L319.003 168.91C319.182 168.803 319.312 168.628 319.363 168.425C319.391 168.32 319.396 168.211 319.38 168.104C319.364 167.998 319.327 167.895 319.27 167.803L317.304 164.562C317.252 164.473 317.181 164.396 317.098 164.335C317.015 164.274 316.92 164.23 316.819 164.207C316.618 164.158 316.406 164.189 316.228 164.294L313.304 166.111L313.13 165.943C312.309 165.128 311.372 164.441 310.349 163.902L310.138 163.784L310.953 160.462C310.978 160.362 310.983 160.258 310.968 160.156C310.953 160.054 310.917 159.956 310.864 159.867C310.811 159.779 310.741 159.702 310.658 159.641C310.575 159.579 310.481 159.535 310.38 159.51L306.698 158.608C306.593 158.58 306.484 158.573 306.378 158.588C306.271 158.603 306.168 158.64 306.075 158.695C305.987 158.749 305.91 158.819 305.849 158.902C305.788 158.986 305.745 159.08 305.721 159.181L304.906 162.503H304.663C303.507 162.508 302.359 162.684 301.254 163.025L301.024 163.094L299.251 160.164C299.141 159.987 298.965 159.861 298.763 159.812C298.561 159.763 298.347 159.796 298.169 159.902L294.927 161.881C294.839 161.933 294.761 162.002 294.699 162.084C294.637 162.166 294.592 162.26 294.567 162.36C294.539 162.464 294.534 162.573 294.55 162.68C294.566 162.787 294.603 162.89 294.66 162.982L296.433 165.912L296.265 166.086C295.452 166.905 294.765 167.84 294.224 168.86L294.106 169.072L290.784 168.257C290.68 168.228 290.57 168.222 290.463 168.238C290.356 168.254 290.254 168.292 290.162 168.35C290.073 168.403 289.996 168.473 289.935 168.557C289.874 168.64 289.831 168.735 289.808 168.836L288.905 172.518C288.88 172.618 288.875 172.722 288.891 172.823C288.906 172.925 288.941 173.023 288.994 173.111C289.048 173.199 289.118 173.275 289.201 173.336C289.284 173.396 289.378 173.44 289.478 173.464L292.806 174.285V174.528C292.812 175.684 292.988 176.832 293.329 177.937L293.397 178.167L290.492 179.921C290.404 179.975 290.327 180.045 290.266 180.128C290.205 180.212 290.161 180.306 290.137 180.407C290.112 180.506 290.107 180.61 290.123 180.712C290.139 180.813 290.176 180.911 290.231 180.998L292.19 184.245C292.301 184.421 292.475 184.548 292.677 184.597C292.879 184.647 293.093 184.617 293.273 184.512L296.203 182.721ZM304.738 183.374C304.019 183.375 303.302 183.288 302.604 183.113C300.294 182.546 298.304 181.085 297.072 179.051C295.839 177.017 295.465 174.576 296.032 172.266C296.598 169.957 298.06 167.966 300.094 166.734C302.128 165.501 304.568 165.127 306.878 165.694C309.002 166.219 310.861 167.502 312.103 169.303C313.346 171.104 313.887 173.297 313.623 175.469C313.36 177.641 312.311 179.641 310.674 181.093C309.037 182.545 306.926 183.347 304.738 183.349V183.374ZM304.738 166.08C302.613 166.081 300.568 166.894 299.022 168.351C297.476 169.809 296.544 171.801 296.416 173.923C296.289 176.044 296.976 178.134 298.337 179.765C299.698 181.397 301.631 182.448 303.741 182.704C305.85 182.959 307.978 182.4 309.689 181.14C311.401 179.881 312.567 178.015 312.95 175.925C313.332 173.835 312.903 171.677 311.749 169.893C310.596 168.108 308.804 166.831 306.741 166.322C306.081 166.161 305.405 166.08 304.725 166.08H304.738Z" fill="#03C9BA"/>
</g>
</g>
<path d="M225.234 222.647L158.047 251.606C156.716 252.184 155.283 252.494 153.832 252.518C152.38 252.543 150.938 252.281 149.588 251.747C148.238 251.214 147.006 250.42 145.963 249.411C144.92 248.401 144.086 247.196 143.509 245.864L81.7592 102.582C80.5994 99.8893 80.5567 96.8462 81.6405 94.1221C82.7243 91.3979 84.8459 89.2159 87.5385 88.056L154.725 59.091C156.058 58.5159 157.492 58.2092 158.944 58.1884C160.395 58.1676 161.837 58.4332 163.186 58.9699C164.535 59.5067 165.765 60.304 166.806 61.3165C167.847 62.3289 168.678 63.5365 169.251 64.8703L231.001 208.115C232.162 210.807 232.206 213.85 231.125 216.574C230.044 219.299 227.925 221.483 225.234 222.647Z" fill="#292930"/>
<path d="M216.879 217.49L159.646 242.131C156.953 243.291 153.91 243.334 151.186 242.25C148.462 241.166 146.28 239.044 145.12 236.352L88.6892 105.45C88.1138 104.117 87.8067 102.683 87.7854 101.231C87.7641 99.7792 88.0291 98.3373 88.5652 96.9878C89.1013 95.6382 89.898 94.4076 90.9099 93.366C91.9217 92.3245 93.1289 91.4925 94.4623 90.9176L151.695 66.2514C154.388 65.0916 157.431 65.0489 160.155 66.1327C162.879 67.2165 165.061 69.3381 166.221 72.0307L222.658 202.939C223.235 204.274 223.542 205.709 223.564 207.163C223.585 208.617 223.32 210.061 222.784 211.412C222.247 212.763 221.449 213.995 220.436 215.038C219.423 216.081 218.214 216.914 216.879 217.49Z" fill="white"/>
<path d="M215.274 213.763L158.041 238.43C152.442 240.85 146.041 238.517 143.733 233.217L90.4501 109.531C88.167 104.237 90.8607 97.9847 96.4658 95.5647L153.699 70.8985C159.298 68.4786 165.699 70.8177 168.007 76.1117L221.296 199.828C223.579 205.091 220.879 211.35 215.274 213.763Z" fill="#DDF4F9" fill-opacity="0.72"/>
<path d="M144.317 78.7557L110.338 93.3999C109.299 93.8431 108.127 93.8569 107.078 93.4384C106.029 93.0199 105.188 92.2031 104.739 91.1666L102.805 86.9239L144.628 68.6404L146.576 73.1319C146.798 73.6493 146.916 74.2055 146.923 74.7686C146.93 75.3317 146.825 75.8907 146.616 76.4133C146.406 76.9359 146.095 77.4119 145.7 77.8139C145.306 78.2159 144.836 78.5359 144.317 78.7557Z" fill="#292930"/>
<path d="M113.859 88.8397C113.459 88.8399 113.066 88.7317 112.722 88.5268C112.378 88.3219 112.096 88.0278 111.905 87.6757C111.715 87.3236 111.623 86.9265 111.64 86.5265C111.656 86.1264 111.781 85.7383 112 85.4033C112.219 85.0682 112.525 84.7986 112.884 84.623C113.244 84.4474 113.645 84.3723 114.044 84.4057C114.443 84.4391 114.825 84.5797 115.151 84.8127C115.477 85.0457 115.733 85.3624 115.894 85.7292C116.125 86.2698 116.133 86.88 115.916 87.4265C115.7 87.9731 115.275 88.4118 114.736 88.6469C114.46 88.7709 114.162 88.8366 113.859 88.8397ZM113.859 85.02C113.515 85.0196 113.181 85.1301 112.904 85.335C112.628 85.5399 112.426 85.8283 112.326 86.1576C112.227 86.4868 112.237 86.8392 112.354 87.1626C112.471 87.4859 112.689 87.763 112.976 87.9526C113.262 88.1422 113.603 88.2343 113.946 88.2152C114.289 88.1961 114.617 88.0668 114.881 87.8465C115.146 87.6262 115.331 87.3267 115.412 86.9924C115.492 86.658 115.463 86.3067 115.327 85.9905C115.205 85.7014 114.999 85.455 114.737 85.2823C114.475 85.1097 114.167 85.0184 113.853 85.02H113.859Z" fill="white"/>
<path d="M120.535 85.3623C120.195 85.363 119.862 85.2638 119.578 85.0768C119.293 84.8899 119.07 84.6236 118.936 84.3109C118.847 84.1004 118.801 83.874 118.801 83.6453C118.801 83.4166 118.847 83.1902 118.936 82.9797C119.106 82.5504 119.44 82.206 119.863 82.0216L136.131 75.0106C136.558 74.8363 137.036 74.8363 137.462 75.0106C137.782 75.1384 138.056 75.358 138.251 75.6416C138.446 75.9252 138.552 76.2601 138.557 76.6042C138.561 76.9482 138.464 77.2859 138.277 77.5747C138.09 77.8635 137.822 78.0904 137.506 78.2268L121.244 85.2379C121.019 85.3296 120.777 85.372 120.535 85.3623ZM136.797 75.4896C136.645 75.49 136.494 75.5218 136.355 75.5829L120.093 82.594C119.84 82.723 119.645 82.9437 119.548 83.2113C119.451 83.4789 119.46 83.7732 119.572 84.0346C119.685 84.2959 119.893 84.5046 120.153 84.6184C120.414 84.7321 120.709 84.7423 120.977 84.6469L137.251 77.6483C137.453 77.5599 137.625 77.4138 137.744 77.2282C137.864 77.0426 137.925 76.8259 137.922 76.6052C137.919 76.3846 137.85 76.1698 137.725 75.9879C137.6 75.806 137.424 75.6651 137.22 75.5829C137.084 75.5316 136.941 75.5042 136.797 75.502V75.4896Z" fill="white"/>
<path opacity="0.4" d="M169.506 79.6641L107.788 149.762L115.203 166.969L175.198 92.865L169.506 79.6641Z" fill="white"/>
<path opacity="0.4" d="M179.459 103.061L122.674 184.612L130.096 201.819L185.388 116.822L179.459 103.061Z" fill="white"/>
<path d="M224.8 66.4947C229.444 51.5463 221.232 35.7069 206.458 31.1165C191.683 26.5261 175.941 34.9229 171.297 49.8713C166.652 64.8197 174.864 80.659 189.639 85.2495C204.413 89.8399 220.156 81.4431 224.8 66.4947Z" fill="#135DCE"/>
<path d="M223.333 63.1049C227.98 48.1573 219.77 32.3165 204.997 27.7235C190.223 23.1304 174.479 31.5245 169.832 46.4721C165.185 61.4197 173.394 77.2605 188.168 81.8535C202.942 86.4465 218.686 78.0525 223.333 63.1049Z" fill="#5BC1F2"/>
<path opacity="0.93" d="M217.132 61.1706C220.702 49.6805 214.39 37.5056 203.035 33.9774C191.679 30.4492 179.579 36.9037 176.009 48.3939C172.439 59.8841 178.751 72.0589 190.107 75.5871C201.462 79.1153 213.562 72.6608 217.132 61.1706Z" fill="white"/>
<path d="M197.053 53.2933C196.788 53.2116 196.567 53.0281 196.437 52.7831C196.308 52.5381 196.281 52.2518 196.362 51.9869L200.132 39.856C200.214 39.5912 200.397 39.3698 200.642 39.2403C200.887 39.1108 201.174 39.0839 201.439 39.1655C201.703 39.2472 201.925 39.4307 202.054 39.6757C202.184 39.9207 202.211 40.2071 202.129 40.4719L198.359 52.6028C198.277 52.8676 198.094 53.0891 197.849 53.2186C197.604 53.3481 197.318 53.3749 197.053 53.2933Z" fill="#DDF9F6" fill-opacity="0.72"/>
<path d="M196.537 55.1472C196.62 54.8836 196.804 54.6636 197.049 54.5353C197.293 54.4071 197.579 54.381 197.843 54.4629L207.174 57.3681C207.439 57.4498 207.661 57.6334 207.79 57.8783C207.92 58.1233 207.947 58.4097 207.865 58.6745C207.783 58.9393 207.6 59.1608 207.355 59.2903C207.11 59.4197 206.823 59.4466 206.559 59.365L197.227 56.4536C196.962 56.3719 196.741 56.1884 196.611 55.9434C196.482 55.6984 196.455 55.412 196.537 55.1472Z" fill="#DDF9F6" fill-opacity="0.72"/>
<path d="M199.579 55.7193C199.386 56.2999 199.027 56.8108 198.545 57.1882C198.064 57.5656 197.482 57.7927 196.872 57.8411C196.263 57.8895 195.652 57.7571 195.117 57.4604C194.582 57.1637 194.147 56.7159 193.865 56.173C193.583 55.63 193.468 55.0161 193.533 54.408C193.599 53.7998 193.842 53.2244 194.233 52.7538C194.623 52.2831 195.144 51.9381 195.73 51.7618C196.315 51.5856 196.94 51.5859 197.526 51.7628C198.321 52.0171 198.984 52.5761 199.368 53.3175C199.753 54.0589 199.829 54.9224 199.579 55.7193Z" fill="#1B1B25"/>
<path d="M235.306 200.98L182.565 182.696C180.228 181.884 178.31 180.178 177.231 177.952C176.152 175.727 176 173.164 176.81 170.827L220.693 44.3041C221.092 43.1451 221.715 42.0761 222.527 41.1581C223.34 40.24 224.325 39.491 225.426 38.9537C226.528 38.4165 227.725 38.1015 228.948 38.0269C230.171 37.9522 231.398 38.1193 232.556 38.5186L285.31 56.8021C287.648 57.6126 289.568 59.3184 290.648 61.5442C291.729 63.77 291.881 66.3338 291.071 68.6717L247.17 195.225C246.358 197.56 244.652 199.478 242.428 200.556C240.204 201.635 237.642 201.788 235.306 200.98Z" fill="#101011"/>
<path d="M234.429 198.51L184.785 181.296C183.682 180.892 182.67 180.274 181.806 179.478C180.942 178.682 180.244 177.724 179.75 176.658C179.257 175.592 178.978 174.44 178.931 173.266C178.883 172.092 179.067 170.921 179.472 169.818L222.323 46.2386C222.687 45.1219 223.268 44.088 224.032 43.196C224.796 42.3039 225.728 41.5712 226.776 41.0397C227.823 40.5082 228.965 40.1883 230.136 40.0983C231.307 40.0083 232.485 40.15 233.601 40.5153L283.245 57.7288C285.466 58.547 287.273 60.2126 288.269 62.3605C289.265 64.5084 289.368 66.9635 288.557 69.1878L245.707 192.78C244.971 195.036 243.37 196.906 241.254 197.981C239.139 199.055 236.684 199.245 234.429 198.51Z" fill="#282830"/>
<path d="M221.822 54.5287L183.749 164.355L245.812 185.871L283.886 76.0445L221.822 54.5287Z" fill="white"/>
<path opacity="0.89" d="M256.893 54.6557C256.768 54.6568 256.643 54.6357 256.526 54.5934C256.252 54.4939 256.029 54.2905 255.904 54.0273C255.774 53.7593 255.754 53.4514 255.848 53.1688C255.95 52.8947 256.155 52.6714 256.42 52.5467C256.552 52.4812 256.696 52.4425 256.843 52.433C256.991 52.4235 257.138 52.4433 257.278 52.4914C257.417 52.5394 257.546 52.6147 257.656 52.7128C257.766 52.811 257.856 52.93 257.919 53.0631C257.984 53.1957 258.022 53.3399 258.03 53.4873C258.039 53.6347 258.018 53.7823 257.969 53.9216C257.894 54.1419 257.751 54.333 257.561 54.468C257.372 54.603 257.144 54.6752 256.911 54.6743L256.893 54.6557ZM256.893 53.032C256.817 53.0321 256.742 53.0513 256.675 53.088C256.616 53.1145 256.562 53.1531 256.518 53.2013C256.474 53.2495 256.441 53.3062 256.42 53.3679C256.384 53.4917 256.395 53.6247 256.453 53.7402C256.511 53.8556 256.61 53.9449 256.731 53.99C256.791 54.0159 256.856 54.0292 256.921 54.0292C256.986 54.0292 257.051 54.0159 257.111 53.99C257.23 53.9319 257.322 53.8291 257.366 53.7038C257.415 53.5822 257.415 53.446 257.366 53.3244C257.338 53.2646 257.298 53.2112 257.249 53.1674C257.2 53.1235 257.142 53.0901 257.079 53.0693C257.022 53.0377 256.958 53.0186 256.893 53.0133V53.032Z" fill="white"/>
<path opacity="0.89" d="M261.434 60.2543C261.34 60.2555 261.247 60.2386 261.16 60.2046L249.408 56.1236C249.196 56.0475 249.021 55.8905 248.923 55.6867C248.826 55.4828 248.812 55.2486 248.886 55.0349C248.922 54.9292 248.979 54.8318 249.053 54.7482C249.128 54.6646 249.218 54.5966 249.318 54.548C249.419 54.4994 249.528 54.4713 249.64 54.4651C249.751 54.459 249.863 54.4751 249.968 54.5124L261.714 58.612C261.82 58.6471 261.918 58.7032 262.003 58.7769C262.087 58.8507 262.156 58.9405 262.205 59.0412C262.296 59.2365 262.309 59.4587 262.242 59.6633C262.186 59.8336 262.077 59.982 261.932 60.0879C261.787 60.1938 261.613 60.2519 261.434 60.2543ZM261.359 59.6322C261.418 59.6522 261.482 59.6485 261.538 59.6217C261.593 59.595 261.636 59.5474 261.658 59.4892C261.679 59.4331 261.679 59.371 261.658 59.315C261.645 59.2875 261.627 59.2628 261.604 59.2425C261.582 59.2222 261.556 59.2066 261.527 59.1968L249.776 55.122C249.719 55.1005 249.657 55.1005 249.601 55.122C249.574 55.1347 249.549 55.1528 249.529 55.1752C249.509 55.1977 249.493 55.224 249.483 55.2527C249.473 55.2813 249.469 55.3115 249.471 55.3417C249.473 55.3718 249.481 55.4013 249.494 55.4285C249.507 55.4556 249.526 55.4799 249.549 55.4999C249.571 55.5199 249.598 55.5352 249.626 55.5451L261.371 59.6198L261.359 59.6322Z" fill="white"/>
<g opacity="0.41">
<g opacity="0.81">
<path opacity="0.81" d="M224.633 58.8485L189.037 161.528L244.541 180.77L280.137 78.0902L224.633 58.8485Z" fill="#DDF4F9" fill-opacity="0.72"/>
</g>
</g>
<path d="M218.079 188.058C217.796 188.057 217.514 188.009 217.246 187.915L204.835 183.61C204.198 183.389 203.676 182.924 203.381 182.318C203.086 181.712 203.043 181.013 203.261 180.376L203.342 180.158C203.45 179.842 203.62 179.55 203.842 179.3C204.063 179.05 204.332 178.846 204.633 178.7C204.934 178.555 205.26 178.47 205.594 178.451C205.928 178.432 206.262 178.479 206.577 178.59L218.988 182.895C219.303 183.004 219.594 183.174 219.844 183.396C220.094 183.618 220.297 183.887 220.443 184.187C220.589 184.488 220.673 184.814 220.693 185.147C220.712 185.481 220.665 185.815 220.555 186.13L220.481 186.348C220.374 186.665 220.204 186.957 219.982 187.207C219.76 187.457 219.489 187.66 219.187 187.803C218.842 187.97 218.463 188.058 218.079 188.058ZM203.852 180.593C203.771 180.833 203.738 181.086 203.755 181.338C203.771 181.59 203.838 181.836 203.95 182.063C204.062 182.289 204.218 182.492 204.408 182.658C204.598 182.824 204.819 182.951 205.059 183.032L217.47 187.331C217.951 187.497 218.478 187.467 218.937 187.245C219.395 187.024 219.747 186.629 219.915 186.149L219.989 185.931C220.156 185.449 220.124 184.921 219.902 184.462C219.679 184.004 219.283 183.653 218.801 183.486L206.39 179.181C205.908 179.014 205.38 179.046 204.922 179.269C204.463 179.492 204.112 179.888 203.945 180.369L203.852 180.593Z" fill="white"/>
<path opacity="0.8" d="M218.31 64.7212L271.524 111.764L265.228 129.905L213.663 77.1943L218.31 64.7212Z" fill="white"/>
<path opacity="0.8" d="M210.31 87.6208L263.524 134.664L257.235 152.811L208.692 91.9693L210.31 87.6208Z" fill="white"/>
<path d="M195.576 105.682L181.82 111.612C178.885 112.877 177.532 116.281 178.797 119.215L184.188 131.72C185.453 134.655 188.857 136.008 191.791 134.743L205.547 128.813C208.482 127.548 209.835 124.144 208.57 121.21L203.179 108.704C201.914 105.77 198.51 104.417 195.576 105.682Z" fill="#135DCE"/>
<path d="M194.979 104.112L181.223 110.042C178.289 111.307 176.936 114.711 178.2 117.645L183.591 130.15C184.856 133.084 188.26 134.438 191.194 133.173L204.951 127.243C207.885 125.978 209.238 122.574 207.973 119.639L202.583 107.134C201.318 104.2 197.914 102.847 194.979 104.112Z" fill="#5BC1F2"/>
<path d="M193.09 123.808C191.901 123.809 190.749 123.401 189.827 122.651C188.904 121.901 188.269 120.856 188.028 119.693C187.787 118.529 187.954 117.318 188.502 116.263C189.051 115.208 189.946 114.375 191.037 113.904C191.741 113.6 192.503 113.457 193.269 113.485C194.035 113.512 194.785 113.71 195.465 114.063C196.146 114.417 196.738 114.917 197.201 115.528C197.664 116.14 197.984 116.846 198.14 117.597C198.295 118.347 198.282 119.123 198.1 119.868C197.919 120.612 197.574 121.307 197.09 121.902C196.607 122.497 195.997 122.976 195.305 123.306C194.613 123.636 193.856 123.807 193.09 123.808ZM193.09 114.103C192.113 114.103 191.162 114.418 190.377 115.001C189.593 115.584 189.018 116.404 188.738 117.34C188.457 118.276 188.486 119.278 188.82 120.196C189.154 121.115 189.775 121.901 190.591 122.438C191.407 122.975 192.375 123.235 193.35 123.178C194.326 123.122 195.257 122.752 196.006 122.124C196.755 121.496 197.281 120.644 197.506 119.693C197.732 118.742 197.645 117.744 197.258 116.847C196.905 116.034 196.323 115.342 195.582 114.854C194.842 114.367 193.976 114.106 193.09 114.103Z" fill="white"/>
<path d="M278.809 116.772H278.411C277.433 116.678 276.518 116.248 275.821 115.555C275.125 114.862 274.69 113.949 274.591 112.971L274.554 112.598L282.983 113.357L282.877 113.724C282.619 114.603 282.083 115.374 281.349 115.924C280.616 116.473 279.725 116.771 278.809 116.772ZM275.269 113.27C275.428 114.026 275.824 114.712 276.401 115.227C276.977 115.742 277.703 116.059 278.473 116.131C279.243 116.203 280.015 116.027 280.678 115.628C281.34 115.23 281.858 114.63 282.156 113.917L275.269 113.27Z" fill="white"/>
<path d="M152.858 169.087L76.5384 202.589C73.0589 204.116 71.4765 208.175 73.0038 211.654L86.2591 241.851C87.7864 245.33 91.8453 246.913 95.3248 245.385L171.644 211.883C175.124 210.356 176.706 206.297 175.179 202.818L161.923 172.621C160.396 169.142 156.337 167.559 152.858 169.087Z" fill="#135DCE"/>
<path d="M154.824 168.226L77.2119 202.296C74.8178 203.347 73.7289 206.14 74.7798 208.534L87.92 238.468C88.971 240.862 91.7637 241.951 94.1578 240.9L171.77 206.83C174.164 205.779 175.253 202.987 174.202 200.593L161.062 170.658C160.011 168.264 157.218 167.175 154.824 168.226Z" fill="#5BC1F2"/>
<path opacity="0.44" d="M108.161 197.612L85.25 207.669L95.3071 230.58L118.218 220.523L108.161 197.612Z" fill="white"/>
<path d="M118.201 199.723C118.059 199.721 117.923 199.671 117.814 199.581C117.705 199.491 117.63 199.367 117.601 199.229C117.572 199.09 117.591 198.946 117.654 198.82C117.718 198.694 117.823 198.594 117.952 198.535L152.117 183.53C152.192 183.497 152.273 183.479 152.354 183.477C152.436 183.475 152.517 183.489 152.594 183.518C152.67 183.548 152.74 183.592 152.799 183.648C152.858 183.705 152.906 183.772 152.939 183.847C152.971 183.922 152.989 184.003 152.991 184.085C152.992 184.167 152.978 184.249 152.948 184.325C152.918 184.401 152.873 184.471 152.816 184.53C152.759 184.589 152.69 184.636 152.615 184.668L118.437 199.673C118.362 199.704 118.282 199.721 118.201 199.723Z" fill="white"/>
<path d="M125.821 217.074C125.699 217.074 125.58 217.039 125.479 216.973C125.377 216.906 125.297 216.812 125.248 216.7C125.215 216.626 125.197 216.545 125.195 216.463C125.193 216.382 125.207 216.3 125.237 216.224C125.266 216.148 125.31 216.078 125.367 216.019C125.423 215.96 125.491 215.912 125.565 215.879L159.744 200.874C159.895 200.807 160.067 200.804 160.222 200.864C160.377 200.924 160.501 201.043 160.568 201.195C160.635 201.346 160.638 201.519 160.578 201.673C160.518 201.828 160.399 201.952 160.247 202.019L126.069 217.024C125.99 217.055 125.906 217.072 125.821 217.074Z" fill="white"/>
<path d="M122.007 208.402C121.863 208.403 121.723 208.354 121.611 208.264C121.5 208.173 121.422 208.047 121.393 207.906C121.364 207.766 121.384 207.619 121.451 207.491C121.517 207.364 121.626 207.263 121.758 207.207L139.799 199.288C139.948 199.232 140.113 199.235 140.26 199.297C140.407 199.359 140.524 199.475 140.588 199.621C140.652 199.767 140.657 199.932 140.603 200.082C140.549 200.231 140.439 200.355 140.297 200.426L122.256 208.346C122.178 208.381 122.093 208.4 122.007 208.402Z" fill="white"/>
<path d="M144.216 198.647C144.074 198.645 143.938 198.595 143.829 198.505C143.72 198.415 143.645 198.291 143.616 198.152C143.587 198.014 143.606 197.87 143.67 197.744C143.733 197.618 143.838 197.517 143.967 197.459L155.936 192.202C156.011 192.169 156.091 192.151 156.173 192.149C156.255 192.147 156.336 192.161 156.412 192.191C156.489 192.22 156.558 192.264 156.617 192.321C156.677 192.377 156.724 192.444 156.757 192.519C156.79 192.594 156.808 192.675 156.81 192.756C156.812 192.838 156.798 192.919 156.769 192.996C156.739 193.072 156.695 193.141 156.639 193.201C156.582 193.26 156.515 193.307 156.44 193.34L144.465 198.597C144.386 198.632 144.301 198.649 144.216 198.647Z" fill="white"/>
<g filter="url(#filter0_dd)">
<path d="M109.373 20.6137L107.667 40.0355C107.267 44.5943 110.638 48.6147 115.197 49.0151L136.558 50.8915C141.117 51.292 145.138 47.9209 145.538 43.362L147.244 23.9403C147.645 19.3814 144.274 15.361 139.715 14.9606L118.353 13.0842C113.794 12.6837 109.774 16.0548 109.373 20.6137Z" fill="#135DCE"/>
<path d="M111.926 18.4294L110.22 37.8511C109.82 42.41 113.191 46.4303 117.75 46.8308L139.111 48.7072C143.67 49.1077 147.69 45.7366 148.091 41.1777L149.797 21.7559C150.197 17.1971 146.826 13.1767 142.267 12.7763L120.906 10.8999C116.347 10.4994 112.327 13.8705 111.926 18.4294Z" fill="#5BC1F2"/>
<path d="M134.7 31.6617L135.539 27.8725L131.866 27.6309L132.03 25.1469C132.099 24.0997 132.679 23.1126 134.324 23.2209L135.994 23.3307L136.208 20.0717C136.208 20.0717 134.71 19.7134 133.261 19.6181C130.236 19.4191 128.139 21.1224 127.92 24.4413L127.728 27.3587L124.366 27.1375L124.114 30.9653L127.477 31.1865L126.868 40.4401L131.006 40.7123L131.615 31.4587L134.7 31.6617Z" fill="white"/>
</g>
<g filter="url(#filter1_dd)">
<path d="M282.739 134.152L276.064 152.47C274.498 156.77 276.713 161.526 281.013 163.093L301.161 170.434C305.461 172.001 310.217 169.785 311.784 165.485L318.458 147.167C320.025 142.867 317.809 138.111 313.509 136.544L293.361 129.203C289.062 127.636 284.306 129.852 282.739 134.152Z" fill="#135DCE"/>
<path d="M285.77 132.703L279.096 151.021C277.529 155.321 279.745 160.077 284.044 161.644L304.192 168.985C308.492 170.552 313.248 168.336 314.815 164.036L321.489 145.718C323.056 141.418 320.841 136.662 316.541 135.095L296.393 127.754C292.093 126.187 287.337 128.403 285.77 132.703Z" fill="#5BC1F2"/>
<path d="M301.931 144.674C299.637 143.764 297.053 144.88 296.143 147.173C295.233 149.467 296.349 152.051 298.643 152.961C300.936 153.871 303.52 152.755 304.43 150.462C305.34 148.168 304.224 145.584 301.931 144.674ZM299.218 151.511C297.736 150.923 297.003 149.234 297.593 147.748C298.182 146.263 299.87 145.534 301.356 146.123C302.841 146.713 303.57 148.401 302.981 149.886C302.391 151.372 300.7 152.099 299.218 151.511ZM307.278 146.599C307.064 147.137 306.461 147.394 305.928 147.182C305.39 146.969 305.133 146.366 305.345 145.832C305.556 145.298 306.161 145.037 306.695 145.249C307.228 145.461 307.489 146.065 307.278 146.599ZM309.633 148.669C310.085 147.35 310.245 146.086 309.671 144.765C309.101 143.445 308.072 142.694 306.803 142.116C305.498 141.51 301.499 139.924 300.135 139.47C298.819 139.019 297.555 138.86 296.232 139.428C294.908 139.997 294.161 141.027 293.583 142.296C292.978 143.601 291.391 147.6 290.937 148.964C290.485 150.283 290.325 151.547 290.899 152.869C291.472 154.19 292.498 154.939 293.767 155.518C295.071 156.123 299.071 157.71 300.435 158.164C301.754 158.616 303.018 158.775 304.339 158.202C305.659 157.632 306.41 156.602 306.988 155.333C307.594 154.029 309.179 150.033 309.633 148.669ZM304.697 156.081C304.135 156.676 303.374 157.005 302.551 157.008C301.319 157.008 298.834 155.909 297.658 155.442C296.482 154.976 293.917 154.066 293.023 153.227C292.428 152.666 292.099 151.905 292.096 151.081C292.096 149.85 293.195 147.364 293.662 146.189C294.128 145.013 295.038 142.448 295.877 141.554C296.439 140.958 297.199 140.63 298.023 140.627C299.254 140.627 301.74 141.726 302.915 142.193C304.091 142.659 306.656 143.568 307.55 144.407C308.146 144.969 308.474 145.73 308.477 146.553C308.477 147.785 307.378 150.27 306.911 151.446C306.445 152.622 305.539 155.188 304.697 156.081Z" fill="white"/>
</g>
<g filter="url(#filter2_dd)">
<path d="M47.3731 139.35L53.512 157.855C54.9529 162.198 59.6423 164.551 63.986 163.11L84.339 156.358C88.6826 154.917 91.0357 150.228 89.5947 145.884L83.4558 127.379C82.0148 123.036 77.3254 120.683 72.9818 122.124L52.6288 128.876C48.2852 130.317 45.9321 135.006 47.3731 139.35Z" fill="#135DCE"/>
<path d="M48.8496 136.332L54.9885 154.837C56.4295 159.18 61.1189 161.533 65.4625 160.092L85.8155 153.34C90.1592 151.899 92.5122 147.21 91.0713 142.866L84.9324 124.361C83.4914 120.018 78.802 117.665 74.4584 119.106L54.1054 125.858C49.7617 127.299 47.4086 131.988 48.8496 136.332Z" fill="#5BC1F2"/>
<path d="M75.2165 136.206C75.2649 136.329 75.3043 136.456 75.3437 136.583C76.5454 140.445 74.9902 145.81 69.6169 147.482C67.9615 147.997 66.2746 147.996 64.7221 147.566C64.9657 147.52 65.1947 147.459 65.4389 147.383C66.8048 146.958 67.9187 146.106 68.6779 145.006C67.385 145.379 66.0468 144.872 65.3157 143.83C65.505 143.801 65.6916 143.762 65.8815 143.703C66.1439 143.622 66.395 143.504 66.6195 143.365C65.1963 143.51 63.8263 142.646 63.3844 141.226L63.3732 141.19C63.8297 141.286 64.3242 141.281 64.8093 141.15C63.859 140.87 63.0648 140.135 62.7496 139.122C62.5808 138.579 62.5707 138.036 62.6889 137.523C64.6788 138.849 67.201 139.334 69.6647 138.707C69.5519 138.504 69.4544 138.286 69.3841 138.06C68.8831 136.45 69.7777 134.733 71.3969 134.229C72.2381 133.967 73.1077 134.084 73.8188 134.487C74.4397 134.155 74.9969 133.714 75.4537 133.205C75.4476 133.951 75.1636 134.664 74.6701 135.215C75.2384 134.968 75.7576 134.628 76.2119 134.239C75.9941 134.942 75.6569 135.612 75.2165 136.206Z" fill="white"/>
</g>
<defs>
<filter id="filter0_dd" x="36.9424" y="0.174805" width="148.58" height="141.442" filterUnits="userSpaceOnUse" color-interpolation-filters="sRGB">
<feFlood flood-opacity="0" result="BackgroundImageFix"/>
<feColorMatrix in="SourceAlpha" type="matrix" values="0 0 0 0 0 0 0 0 0 0 0 0 0 0 0 0 0 0 127 0"/>
<feOffset dx="-20" dy="40"/>
<feGaussianBlur stdDeviation="25"/>
<feColorMatrix type="matrix" values="0 0 0 0 0.345 0 0 0 0 0.360333 0 0 0 0 0.383333 0 0 0 0.2 0"/>
<feBlend mode="normal" in2="BackgroundImageFix" result="effect1_dropShadow"/>
<feColorMatrix in="SourceAlpha" type="matrix" values="0 0 0 0 0 0 0 0 0 0 0 0 0 0 0 0 0 0 127 0"/>
<feOffset dx="-15" dy="40"/>
<feGaussianBlur stdDeviation="25"/>
<feColorMatrix type="matrix" values="0 0 0 0 0.00392157 0 0 0 0 0.8 0 0 0 0 0.729412 0 0 0 0.23 0"/>
<feBlend mode="normal" in2="effect1_dropShadow" result="effect2_dropShadow"/>
<feBlend mode="normal" in="SourceGraphic" in2="effect2_dropShadow" result="shape"/>
</filter>
<filter id="filter1_dd" x="203.228" y="114.917" width="156.099" height="148.354" filterUnits="userSpaceOnUse" color-interpolation-filters="sRGB">
<feFlood flood-opacity="0" result="BackgroundImageFix"/>
<feColorMatrix in="SourceAlpha" type="matrix" values="0 0 0 0 0 0 0 0 0 0 0 0 0 0 0 0 0 0 127 0"/>
<feOffset dx="-20" dy="40"/>
<feGaussianBlur stdDeviation="25"/>
<feColorMatrix type="matrix" values="0 0 0 0 0.345 0 0 0 0 0.360333 0 0 0 0 0.383333 0 0 0 0.2 0"/>
<feBlend mode="normal" in2="BackgroundImageFix" result="effect1_dropShadow"/>
<feColorMatrix in="SourceAlpha" type="matrix" values="0 0 0 0 0 0 0 0 0 0 0 0 0 0 0 0 0 0 127 0"/>
<feOffset dx="-15" dy="40"/>
<feGaussianBlur stdDeviation="25"/>
<feColorMatrix type="matrix" values="0 0 0 0 0.00392157 0 0 0 0 0.8 0 0 0 0 0.729412 0 0 0 0.23 0"/>
<feBlend mode="normal" in2="effect1_dropShadow" result="effect2_dropShadow"/>
<feBlend mode="normal" in="SourceGraphic" in2="effect2_dropShadow" result="shape"/>
</filter>
<filter id="filter2_dd" x="-25.2358" y="106.497" width="153.916" height="149.223" filterUnits="userSpaceOnUse" color-interpolation-filters="sRGB">
<feFlood flood-opacity="0" result="BackgroundImageFix"/>
<feColorMatrix in="SourceAlpha" type="matrix" values="0 0 0 0 0 0 0 0 0 0 0 0 0 0 0 0 0 0 127 0"/>
<feOffset dx="-20" dy="40"/>
<feGaussianBlur stdDeviation="25"/>
<feColorMatrix type="matrix" values="0 0 0 0 0.345 0 0 0 0 0.360333 0 0 0 0 0.383333 0 0 0 0.1 0"/>
<feBlend mode="normal" in2="BackgroundImageFix" result="effect1_dropShadow"/>
<feColorMatrix in="SourceAlpha" type="matrix" values="0 0 0 0 0 0 0 0 0 0 0 0 0 0 0 0 0 0 127 0"/>
<feOffset dx="-15" dy="40"/>
<feGaussianBlur stdDeviation="25"/>
<feColorMatrix type="matrix" values="0 0 0 0 0.00392157 0 0 0 0 0.8 0 0 0 0 0.729412 0 0 0 0.19 0"/>
<feBlend mode="normal" in2="effect1_dropShadow" result="effect2_dropShadow"/>
<feBlend mode="normal" in="SourceGraphic" in2="effect2_dropShadow" result="shape"/>
</filter>
</defs>
</svg>
