<svg class="phone-status-bar-svg" width="349" height="31" viewBox="0 0 349 31" fill="none" xmlns="http://www.w3.org/2000/svg">
  <path opacity="0.25" fill-rule="evenodd" clip-rule="evenodd"
    d="M297.5 13H298.5C299.052 13 299.5 13.4477 299.5 14V22C299.5 22.5523 299.052 23 298.5 23H297.5C296.948 23 296.5 22.5523 296.5 22V14C296.5 13.4477 296.948 13 297.5 13Z"
    fill="black" />
  <path fill-rule="evenodd" clip-rule="evenodd"
    d="M294 15H293C292.448 15 292 15.4477 292 16V22C292 22.5523 292.448 23 293 23H294C294.552 23 295 22.5523 295 22V16C295 15.4477 294.552 15 294 15ZM288.5 17H289.5C290.052 17 290.5 17.4477 290.5 18V22C290.5 22.5523 290.052 23 289.5 23H288.5C287.948 23 287.5 22.5523 287.5 22V18C287.5 17.4477 287.948 17 288.5 17ZM284 18.5H285C285.552 18.5 286 18.9477 286 19.5V22C286 22.5523 285.552 23 285 23H284C283.448 23 283 22.5523 283 22V19.5C283 18.9477 283.448 18.5 284 18.5Z"
    fill="black" />
  <path opacity="0.35" fill-rule="evenodd" clip-rule="evenodd"
    d="M324.5 12H343.5C344.881 12 346 13.1193 346 14.5V21C346 22.3807 344.881 23.5 343.5 23.5H324.5C323.119 23.5 322 22.3807 322 21V14.5C322 13.1193 323.119 12 324.5 12ZM324.5 13C323.672 13 323 13.6716 323 14.5V21C323 21.8284 323.672 22.5 324.5 22.5H343.5C344.328 22.5 345 21.8284 345 21V14.5C345 13.6716 344.328 13 343.5 13H324.5Z"
    fill="black" />
  <path opacity="0.4" fill-rule="evenodd" clip-rule="evenodd"
    d="M347 15.2998C347.89 15.755 348.5 16.6813 348.5 17.7499C348.5 18.8186 347.89 19.7449 347 20.2001V15.2998Z"
    fill="black" />
  <path fill-rule="evenodd" clip-rule="evenodd"
    d="M325 14H343C343.552 14 344 14.4477 344 15V20.5C344 21.0523 343.552 21.5 343 21.5H325C324.448 21.5 324 21.0523 324 20.5V15C324 14.4477 324.448 14 325 14Z"
    fill="black" />
  <path
    d="M13.2109 26H14.7227V17.5449H13.2168L11.0078 19.0918V20.5449L13.1113 19.0684H13.2109V26ZM18.2148 25.1035C18.7715 25.1035 19.1523 24.7051 19.1523 24.1777C19.1523 23.6445 18.7715 23.252 18.2148 23.252C17.6641 23.252 17.2773 23.6445 17.2773 24.1777C17.2773 24.7051 17.6641 25.1035 18.2148 25.1035ZM18.2148 20.709C18.7715 20.709 19.1523 20.3164 19.1523 19.7891C19.1523 19.2559 18.7715 18.8633 18.2148 18.8633C17.6641 18.8633 17.2773 19.2559 17.2773 19.7891C17.2773 20.3164 17.6641 20.709 18.2148 20.709ZM21.0391 20.0176V20.041H22.457V20.0176C22.457 19.1562 23.0547 18.5762 23.9395 18.5762C24.7715 18.5762 25.3809 19.1152 25.3809 19.8594C25.3809 20.457 25.0938 20.8965 23.9395 22.0684L21.1211 24.9512V26H26.9922V24.7168H23.1953V24.6172L24.9648 22.8418C26.4004 21.4238 26.8633 20.6738 26.8633 19.7656C26.8633 18.3535 25.6562 17.334 23.9863 17.334C22.252 17.334 21.0391 18.4355 21.0391 20.0176ZM31.7852 26.2109C33.8066 26.2109 35.0078 24.5703 35.0078 21.7754C35.0078 18.9688 33.7891 17.334 31.7852 17.334C29.7754 17.334 28.5566 18.9688 28.5566 21.7637C28.5566 24.5703 29.7578 26.2109 31.7852 26.2109ZM31.7852 24.957C30.7129 24.957 30.0859 23.8438 30.0859 21.7637C30.0859 19.7012 30.7246 18.5938 31.7852 18.5938C32.8457 18.5938 33.4785 19.6953 33.4785 21.7637C33.4785 23.8438 32.8574 24.957 31.7852 24.957ZM40.0176 17.5449V26H41.5293V23.2285H43.3633C45.0742 23.2285 46.2695 22.0801 46.2695 20.4043C46.2695 18.6992 45.1152 17.5449 43.4277 17.5449H40.0176ZM41.5293 18.8105H43.0293C44.1191 18.8105 44.7344 19.3672 44.7344 20.4043C44.7344 21.4121 44.1016 21.9746 43.0234 21.9746H41.5293V18.8105ZM56.6699 26V17.5449H54.9004L52.3574 23.7031H52.252L49.709 17.5449H47.9395V26H49.3457V20.0527H49.4277L51.7656 25.6719H52.8438L55.1816 20.0527H55.2637V26H56.6699Z"
    fill="black" />
  <path fill-rule="evenodd" clip-rule="evenodd"
    d="M317.983 15.5229C316.072 13.8906 313.657 13 311.133 13C308.601 13 306.18 13.8959 304.266 15.5371L304.104 15.6765C303.972 15.7892 303.965 15.9895 304.087 16.1118L305.214 17.2356C305.324 17.3447 305.498 17.3521 305.617 17.2527L305.756 17.1354C307.263 15.8694 309.155 15.1804 311.133 15.1804C313.104 15.1804 314.989 15.8647 316.494 17.1228L316.634 17.2395C316.752 17.3385 316.926 17.3308 317.036 17.2219L318.163 16.098C318.285 15.9756 318.278 15.7749 318.146 15.6623L317.983 15.5229ZM311.133 16.4698C312.724 16.4698 314.251 16.9975 315.495 17.9749L315.671 18.113C315.811 18.2231 315.824 18.4306 315.697 18.5564L314.567 19.6841C314.462 19.7884 314.297 19.8003 314.178 19.7122L314.04 19.6098C313.2 18.9852 312.186 18.6501 311.133 18.6501C310.073 18.6501 309.053 18.9893 308.21 19.6211L308.072 19.7245C307.954 19.8133 307.787 19.8016 307.683 19.697L306.552 18.5698C306.426 18.4442 306.438 18.2373 306.578 18.1269L306.753 17.9887C308 17.0027 309.534 16.4698 311.133 16.4698ZM311.133 19.9396C311.772 19.9396 312.394 20.1076 312.941 20.4281L313.163 20.5579C313.331 20.6563 313.361 20.8867 313.223 21.0242L311.329 22.913C311.212 23.029 311.024 23.029 310.907 22.913L309.026 21.0363C308.888 20.8994 308.917 20.6702 309.084 20.5711L309.303 20.4406C309.856 20.1121 310.485 19.9396 311.133 19.9396Z"
    fill="black" />
  <path fill-rule="evenodd" clip-rule="evenodd"
    d="M60 0H286C282.979 0 280.493 2.33967 280.354 5.31235C279.587 21.7077 271.051 29.9054 254.746 29.9054C241.447 29.9054 207.407 29.9524 173.512 30C139.309 29.9524 104.959 29.9054 91.5391 29.9054C75.0856 29.9054 66.4718 21.7077 65.6979 5.31235C65.5576 2.33967 63.0481 0 60 0Z"
    fill="black" />
</svg>