<svg width="25" height="25" viewBox="0 0 25 25" fill="none" xmlns="http://www.w3.org/2000/svg">
  <path
    d="M12.6051 6.65279C9.25474 6.65279 6.55234 9.35521 6.55234 12.7056C6.55234 16.0559 9.25474 18.7583 12.6051 18.7583C15.9554 18.7583 18.6579 16.0559 18.6579 12.7056C18.6579 9.35521 15.9554 6.65279 12.6051 6.65279ZM12.6051 16.6407C10.44 16.6407 8.67001 14.8759 8.67001 12.7056C8.67001 10.5352 10.4347 8.77047 12.6051 8.77047C14.7754 8.77047 16.5402 10.5352 16.5402 12.7056C16.5402 14.8759 14.7702 16.6407 12.6051 16.6407ZM20.3172 6.40521C20.3172 7.19012 19.6851 7.81699 18.9054 7.81699C18.1205 7.81699 17.4937 7.18485 17.4937 6.40521C17.4937 5.62556 18.1258 4.99342 18.9054 4.99342C19.6851 4.99342 20.3172 5.62556 20.3172 6.40521ZM24.3261 7.83806C24.2365 5.9469 23.8045 4.27172 22.4191 2.89154C21.0389 1.51137 19.3637 1.0794 17.4726 0.98458C15.5235 0.873955 9.68144 0.873955 7.73234 0.98458C5.84645 1.07413 4.17127 1.5061 2.78583 2.88628C1.40038 4.26646 0.973688 5.94163 0.878867 7.8328C0.768242 9.7819 0.768242 15.624 0.878867 17.5731C0.96842 19.4642 1.40038 21.1394 2.78583 22.5196C4.17127 23.8998 5.84118 24.3317 7.73234 24.4265C9.68144 24.5372 15.5235 24.5372 17.4726 24.4265C19.3637 24.337 21.0389 23.905 22.4191 22.5196C23.7993 21.1394 24.2312 19.4642 24.3261 17.5731C24.4367 15.624 24.4367 9.78717 24.3261 7.83806ZM21.808 19.6644C21.3971 20.6969 20.6017 21.4923 19.5639 21.9085C18.0099 22.5249 14.3224 22.3826 12.6051 22.3826C10.8878 22.3826 7.19501 22.5196 5.64627 21.9085C4.61377 21.4976 3.81833 20.7022 3.40217 19.6644C2.78583 18.1104 2.92806 14.4229 2.92806 12.7056C2.92806 10.9882 2.7911 7.29547 3.40217 5.74672C3.81306 4.71422 4.6085 3.91878 5.64627 3.50262C7.20028 2.88628 10.8878 3.02851 12.6051 3.02851C14.3224 3.02851 18.0152 2.89154 19.5639 3.50262C20.5964 3.91351 21.3919 4.70896 21.808 5.74672C22.4244 7.30074 22.2821 10.9882 22.2821 12.7056C22.2821 14.4229 22.4244 18.1157 21.808 19.6644Z"
    fill="white" />
</svg>