<svg width="24" height="21" viewBox="0 0 24 21" fill="none" xmlns="http://www.w3.org/2000/svg">
  <path
    d="M21.5242 5.69314C21.5392 5.90277 21.5392 6.11245 21.5392 6.32209C21.5392 12.7162 16.6724 20.0837 7.7775 20.0837C5.03714 20.0837 2.49147 19.2901 0.350098 17.9125C0.739451 17.9573 1.11378 17.9723 1.51811 17.9723C3.77924 17.9723 5.86074 17.2086 7.52293 15.9059C5.39653 15.8609 3.61455 14.4683 3.00058 12.5515C3.3001 12.5964 3.59957 12.6264 3.91407 12.6264C4.34832 12.6264 4.78261 12.5665 5.1869 12.4617C2.97067 12.0124 1.30843 10.0657 1.30843 7.71472V7.65484C1.95232 8.01424 2.70111 8.23885 3.4947 8.26876C2.19191 7.40022 1.33839 5.91775 1.33839 4.24059C1.33839 3.34213 1.57794 2.51852 1.99726 1.79974C4.37823 4.73476 7.95718 6.65147 11.9703 6.86115C11.8955 6.50176 11.8505 6.12743 11.8505 5.75306C11.8505 3.08755 14.0069 0.91626 16.6873 0.91626C18.08 0.91626 19.3378 1.50027 20.2213 2.44367C21.3145 2.23403 22.3627 1.8297 23.2911 1.27565C22.9317 2.39877 22.168 3.34217 21.1647 3.94112C22.1381 3.83634 23.0815 3.56674 23.95 3.19241C23.2912 4.15075 22.4676 5.00427 21.5242 5.69314Z"
    fill="white" />
</svg>