<svg width="22" height="28" viewBox="0 0 22 28" fill="none" xmlns="http://www.w3.org/2000/svg">
  <path
    d="M11.6954 0.225098C6.17799 0.225098 0.725098 3.90338 0.725098 9.85639C0.725098 13.6422 2.85463 15.7933 4.14525 15.7933C4.67764 15.7933 4.98416 14.309 4.98416 13.8896C4.98416 13.3895 3.70967 12.3247 3.70967 10.2436C3.70967 5.91998 7.00076 2.85475 11.2598 2.85475C14.922 2.85475 17.6323 4.93588 17.6323 8.75936C17.6323 11.6149 16.4869 16.971 12.7763 16.971C11.4373 16.971 10.2919 16.003 10.2919 14.6156C10.2919 12.5828 11.7115 10.6146 11.7115 8.51736C11.7115 4.95739 6.66197 5.6027 6.66197 9.90479C6.66197 10.8082 6.7749 11.8085 7.17822 12.6312C6.43611 15.8255 4.91963 20.5847 4.91963 23.8758C4.91963 24.8922 5.06482 25.8924 5.16162 26.9088C5.34446 27.1131 5.25304 27.0916 5.53268 26.9894C8.24299 23.2789 8.14619 22.5529 9.37228 17.6969C10.0337 18.9553 11.7438 19.6329 13.099 19.6329C18.81 19.6329 21.3751 14.0671 21.3751 9.04975C21.3751 3.70979 16.7611 0.225098 11.6954 0.225098Z"
    fill="white" />
</svg>